G04 Layer: BottomSilkLayer*
G04 EasyEDA v6.4.20.6, 2021-07-19T19:11:35--4:00*
G04 e84b6f659e4c45e888895c734b18603a,91999b56e5bf4a9c8a3ad43c56598434,10*
G04 Gerber Generator version 0.2*
G04 Scale: 100 percent, Rotated: No, Reflected: No *
G04 Dimensions in millimeters *
G04 leading zeros omitted , absolute positions ,4 integer and 5 decimal *
%FSLAX45Y45*%
%MOMM*%

%ADD23C,0.2032*%

%LPD*%
D23*
X4251035Y6034346D02*
G01*
X4343400Y5905037D01*
X4204855Y5905037D01*
X4251035Y6034346D02*
G01*
X4251035Y5840384D01*
X4097713Y6034346D02*
G01*
X4125422Y6025111D01*
X4134657Y6006637D01*
X4134657Y5988164D01*
X4125422Y5969693D01*
X4106948Y5960455D01*
X4070004Y5951220D01*
X4042295Y5941984D01*
X4023822Y5923511D01*
X4014584Y5905037D01*
X4014584Y5877328D01*
X4023822Y5858855D01*
X4033057Y5849620D01*
X4060766Y5840384D01*
X4097713Y5840384D01*
X4125422Y5849620D01*
X4134657Y5858855D01*
X4143895Y5877328D01*
X4143895Y5905037D01*
X4134657Y5923511D01*
X4116184Y5941984D01*
X4088475Y5951220D01*
X4051531Y5960455D01*
X4033057Y5969693D01*
X4023822Y5988164D01*
X4023822Y6006637D01*
X4033057Y6025111D01*
X4060766Y6034346D01*
X4097713Y6034346D01*
X3953624Y6034346D02*
G01*
X3879735Y5840384D01*
X3805844Y6034346D02*
G01*
X3879735Y5840384D01*
X3574935Y6034346D02*
G01*
X3574935Y5877328D01*
X3565697Y5849620D01*
X3547224Y5840384D01*
X3528753Y5840384D01*
X3602644Y5969693D02*
G01*
X3537988Y5969693D01*
X3421611Y5969693D02*
G01*
X3440084Y5960455D01*
X3458555Y5941984D01*
X3467793Y5914275D01*
X3467793Y5895802D01*
X3458555Y5868093D01*
X3440084Y5849620D01*
X3421611Y5840384D01*
X3393902Y5840384D01*
X3375428Y5849620D01*
X3356955Y5868093D01*
X3347720Y5895802D01*
X3347720Y5914275D01*
X3356955Y5941984D01*
X3375428Y5960455D01*
X3393902Y5969693D01*
X3421611Y5969693D01*
X3135284Y5988164D02*
G01*
X3135284Y5997402D01*
X3126046Y6015875D01*
X3116811Y6025111D01*
X3098337Y6034346D01*
X3061393Y6034346D01*
X3042920Y6025111D01*
X3033684Y6015875D01*
X3024446Y5997402D01*
X3024446Y5978928D01*
X3033684Y5960455D01*
X3052155Y5932746D01*
X3144520Y5840384D01*
X3015211Y5840384D01*
X2898833Y6034346D02*
G01*
X2926542Y6025111D01*
X2945015Y5997402D01*
X2954251Y5951220D01*
X2954251Y5923511D01*
X2945015Y5877328D01*
X2926542Y5849620D01*
X2898833Y5840384D01*
X2880359Y5840384D01*
X2852651Y5849620D01*
X2834177Y5877328D01*
X2824942Y5923511D01*
X2824942Y5951220D01*
X2834177Y5997402D01*
X2852651Y6025111D01*
X2880359Y6034346D01*
X2898833Y6034346D01*
X2621742Y6034346D02*
G01*
X2547851Y5840384D01*
X2473959Y6034346D02*
G01*
X2547851Y5840384D01*
X2132215Y5988164D02*
G01*
X2141451Y6006637D01*
X2159924Y6025111D01*
X2178395Y6034346D01*
X2215342Y6034346D01*
X2233815Y6025111D01*
X2252286Y6006637D01*
X2261524Y5988164D01*
X2270759Y5960455D01*
X2270759Y5914275D01*
X2261524Y5886564D01*
X2252286Y5868093D01*
X2233815Y5849620D01*
X2215342Y5840384D01*
X2178395Y5840384D01*
X2159924Y5849620D01*
X2141451Y5868093D01*
X2132215Y5886564D01*
X2025073Y5969693D02*
G01*
X2043544Y5960455D01*
X2062017Y5941984D01*
X2071255Y5914275D01*
X2071255Y5895802D01*
X2062017Y5868093D01*
X2043544Y5849620D01*
X2025073Y5840384D01*
X1997364Y5840384D01*
X1978891Y5849620D01*
X1960417Y5868093D01*
X1951182Y5895802D01*
X1951182Y5914275D01*
X1960417Y5941984D01*
X1978891Y5960455D01*
X1997364Y5969693D01*
X2025073Y5969693D01*
X1890222Y5969693D02*
G01*
X1890222Y5840384D01*
X1890222Y5932746D02*
G01*
X1862513Y5960455D01*
X1844039Y5969693D01*
X1816331Y5969693D01*
X1797857Y5960455D01*
X1788622Y5932746D01*
X1788622Y5840384D01*
X1727662Y5969693D02*
G01*
X1672244Y5840384D01*
X1616824Y5969693D02*
G01*
X1672244Y5840384D01*
X1555864Y5914275D02*
G01*
X1445028Y5914275D01*
X1445028Y5932746D01*
X1454264Y5951220D01*
X1463502Y5960455D01*
X1481975Y5969693D01*
X1509684Y5969693D01*
X1528155Y5960455D01*
X1546628Y5941984D01*
X1555864Y5914275D01*
X1555864Y5895802D01*
X1546628Y5868093D01*
X1528155Y5849620D01*
X1509684Y5840384D01*
X1481975Y5840384D01*
X1463502Y5849620D01*
X1445028Y5868093D01*
X1384068Y5969693D02*
G01*
X1384068Y5840384D01*
X1384068Y5914275D02*
G01*
X1374833Y5941984D01*
X1356360Y5960455D01*
X1337886Y5969693D01*
X1310177Y5969693D01*
X1221508Y6034346D02*
G01*
X1221508Y5877328D01*
X1212273Y5849620D01*
X1193800Y5840384D01*
X1175326Y5840384D01*
X1249217Y5969693D02*
G01*
X1184564Y5969693D01*
X1114366Y5914275D02*
G01*
X1003531Y5914275D01*
X1003531Y5932746D01*
X1012766Y5951220D01*
X1022004Y5960455D01*
X1040475Y5969693D01*
X1068184Y5969693D01*
X1086657Y5960455D01*
X1105131Y5941984D01*
X1114366Y5914275D01*
X1114366Y5895802D01*
X1105131Y5868093D01*
X1086657Y5849620D01*
X1068184Y5840384D01*
X1040475Y5840384D01*
X1022004Y5849620D01*
X1003531Y5868093D01*
X942571Y5969693D02*
G01*
X942571Y5840384D01*
X942571Y5914275D02*
G01*
X933335Y5941984D01*
X914862Y5960455D01*
X896388Y5969693D01*
X868679Y5969693D01*
X4343400Y5729546D02*
G01*
X4343400Y5535584D01*
X4343400Y5729546D02*
G01*
X4269508Y5535584D01*
X4195617Y5729546D02*
G01*
X4269508Y5535584D01*
X4195617Y5729546D02*
G01*
X4195617Y5535584D01*
X4134657Y5729546D02*
G01*
X4125422Y5720311D01*
X4116184Y5729546D01*
X4125422Y5738784D01*
X4134657Y5729546D01*
X4125422Y5664893D02*
G01*
X4125422Y5535584D01*
X4055224Y5729546D02*
G01*
X4055224Y5535584D01*
X3994264Y5729546D02*
G01*
X3994264Y5535584D01*
X3933304Y5729546D02*
G01*
X3924068Y5720311D01*
X3914833Y5729546D01*
X3924068Y5738784D01*
X3933304Y5729546D01*
X3924068Y5664893D02*
G01*
X3924068Y5535584D01*
X3743035Y5664893D02*
G01*
X3743035Y5517111D01*
X3752273Y5489402D01*
X3761508Y5480164D01*
X3779982Y5470928D01*
X3807691Y5470928D01*
X3826164Y5480164D01*
X3743035Y5637184D02*
G01*
X3761508Y5655655D01*
X3779982Y5664893D01*
X3807691Y5664893D01*
X3826164Y5655655D01*
X3844635Y5637184D01*
X3853873Y5609475D01*
X3853873Y5591002D01*
X3844635Y5563293D01*
X3826164Y5544820D01*
X3807691Y5535584D01*
X3779982Y5535584D01*
X3761508Y5544820D01*
X3743035Y5563293D01*
X3571240Y5664893D02*
G01*
X3571240Y5535584D01*
X3571240Y5637184D02*
G01*
X3589713Y5655655D01*
X3608184Y5664893D01*
X3635895Y5664893D01*
X3654366Y5655655D01*
X3672840Y5637184D01*
X3682075Y5609475D01*
X3682075Y5591002D01*
X3672840Y5563293D01*
X3654366Y5544820D01*
X3635895Y5535584D01*
X3608184Y5535584D01*
X3589713Y5544820D01*
X3571240Y5563293D01*
X3510279Y5664893D02*
G01*
X3510279Y5535584D01*
X3510279Y5627946D02*
G01*
X3482571Y5655655D01*
X3464097Y5664893D01*
X3436388Y5664893D01*
X3417915Y5655655D01*
X3408679Y5627946D01*
X3408679Y5535584D01*
X3205479Y5729546D02*
G01*
X3205479Y5535584D01*
X3205479Y5729546D02*
G01*
X3122353Y5729546D01*
X3094644Y5720311D01*
X3085406Y5711075D01*
X3076171Y5692602D01*
X3076171Y5674128D01*
X3085406Y5655655D01*
X3094644Y5646420D01*
X3122353Y5637184D01*
X3205479Y5637184D01*
X3140824Y5637184D02*
G01*
X3076171Y5535584D01*
X2969028Y5664893D02*
G01*
X2987502Y5655655D01*
X3005975Y5637184D01*
X3015211Y5609475D01*
X3015211Y5591002D01*
X3005975Y5563293D01*
X2987502Y5544820D01*
X2969028Y5535584D01*
X2941320Y5535584D01*
X2922846Y5544820D01*
X2904375Y5563293D01*
X2895137Y5591002D01*
X2895137Y5609475D01*
X2904375Y5637184D01*
X2922846Y5655655D01*
X2941320Y5664893D01*
X2969028Y5664893D01*
X2834177Y5729546D02*
G01*
X2834177Y5535584D01*
X2834177Y5637184D02*
G01*
X2815704Y5655655D01*
X2797233Y5664893D01*
X2769524Y5664893D01*
X2751051Y5655655D01*
X2732577Y5637184D01*
X2723342Y5609475D01*
X2723342Y5591002D01*
X2732577Y5563293D01*
X2751051Y5544820D01*
X2769524Y5535584D01*
X2797233Y5535584D01*
X2815704Y5544820D01*
X2834177Y5563293D01*
X2616200Y5664893D02*
G01*
X2634673Y5655655D01*
X2653144Y5637184D01*
X2662382Y5609475D01*
X2662382Y5591002D01*
X2653144Y5563293D01*
X2634673Y5544820D01*
X2616200Y5535584D01*
X2588491Y5535584D01*
X2570017Y5544820D01*
X2551544Y5563293D01*
X2542308Y5591002D01*
X2542308Y5609475D01*
X2551544Y5637184D01*
X2570017Y5655655D01*
X2588491Y5664893D01*
X2616200Y5664893D01*
X2453640Y5729546D02*
G01*
X2453640Y5572528D01*
X2444404Y5544820D01*
X2425931Y5535584D01*
X2407457Y5535584D01*
X2481348Y5664893D02*
G01*
X2416695Y5664893D01*
X2346497Y5729546D02*
G01*
X2337262Y5720311D01*
X2328024Y5729546D01*
X2337262Y5738784D01*
X2346497Y5729546D01*
X2337262Y5664893D02*
G01*
X2337262Y5535584D01*
X2156228Y5637184D02*
G01*
X2174702Y5655655D01*
X2193175Y5664893D01*
X2220884Y5664893D01*
X2239355Y5655655D01*
X2257828Y5637184D01*
X2267064Y5609475D01*
X2267064Y5591002D01*
X2257828Y5563293D01*
X2239355Y5544820D01*
X2220884Y5535584D01*
X2193175Y5535584D01*
X2174702Y5544820D01*
X2156228Y5563293D01*
X1993668Y5637184D02*
G01*
X2002904Y5655655D01*
X2030615Y5664893D01*
X2058324Y5664893D01*
X2086033Y5655655D01*
X2095268Y5637184D01*
X2086033Y5618711D01*
X2067559Y5609475D01*
X2021377Y5600237D01*
X2002904Y5591002D01*
X1993668Y5572528D01*
X1993668Y5563293D01*
X2002904Y5544820D01*
X2030615Y5535584D01*
X2058324Y5535584D01*
X2086033Y5544820D01*
X2095268Y5563293D01*
X4343400Y5424746D02*
G01*
X4343400Y5230784D01*
X4343400Y5424746D02*
G01*
X4278744Y5424746D01*
X4251035Y5415511D01*
X4232564Y5397037D01*
X4223326Y5378564D01*
X4214091Y5350855D01*
X4214091Y5304675D01*
X4223326Y5276964D01*
X4232564Y5258493D01*
X4251035Y5240020D01*
X4278744Y5230784D01*
X4343400Y5230784D01*
X4153131Y5304675D02*
G01*
X4042295Y5304675D01*
X4042295Y5323146D01*
X4051531Y5341620D01*
X4060766Y5350855D01*
X4079240Y5360093D01*
X4106948Y5360093D01*
X4125422Y5350855D01*
X4143895Y5332384D01*
X4153131Y5304675D01*
X4153131Y5286202D01*
X4143895Y5258493D01*
X4125422Y5240020D01*
X4106948Y5230784D01*
X4079240Y5230784D01*
X4060766Y5240020D01*
X4042295Y5258493D01*
X3879735Y5332384D02*
G01*
X3888971Y5350855D01*
X3916679Y5360093D01*
X3944388Y5360093D01*
X3972097Y5350855D01*
X3981335Y5332384D01*
X3972097Y5313911D01*
X3953624Y5304675D01*
X3907444Y5295437D01*
X3888971Y5286202D01*
X3879735Y5267728D01*
X3879735Y5258493D01*
X3888971Y5240020D01*
X3916679Y5230784D01*
X3944388Y5230784D01*
X3972097Y5240020D01*
X3981335Y5258493D01*
X3818775Y5424746D02*
G01*
X3809537Y5415511D01*
X3800302Y5424746D01*
X3809537Y5433984D01*
X3818775Y5424746D01*
X3809537Y5360093D02*
G01*
X3809537Y5230784D01*
X3628504Y5360093D02*
G01*
X3628504Y5212311D01*
X3637742Y5184602D01*
X3646977Y5175364D01*
X3665451Y5166128D01*
X3693159Y5166128D01*
X3711633Y5175364D01*
X3628504Y5332384D02*
G01*
X3646977Y5350855D01*
X3665451Y5360093D01*
X3693159Y5360093D01*
X3711633Y5350855D01*
X3730104Y5332384D01*
X3739342Y5304675D01*
X3739342Y5286202D01*
X3730104Y5258493D01*
X3711633Y5240020D01*
X3693159Y5230784D01*
X3665451Y5230784D01*
X3646977Y5240020D01*
X3628504Y5258493D01*
X3567544Y5360093D02*
G01*
X3567544Y5230784D01*
X3567544Y5323146D02*
G01*
X3539835Y5350855D01*
X3521364Y5360093D01*
X3493655Y5360093D01*
X3475182Y5350855D01*
X3465944Y5323146D01*
X3465944Y5230784D01*
X3404984Y5304675D02*
G01*
X3294148Y5304675D01*
X3294148Y5323146D01*
X3303384Y5341620D01*
X3312622Y5350855D01*
X3331095Y5360093D01*
X3358804Y5360093D01*
X3377275Y5350855D01*
X3395748Y5332384D01*
X3404984Y5304675D01*
X3404984Y5286202D01*
X3395748Y5258493D01*
X3377275Y5240020D01*
X3358804Y5230784D01*
X3331095Y5230784D01*
X3312622Y5240020D01*
X3294148Y5258493D01*
X3122353Y5424746D02*
G01*
X3122353Y5230784D01*
X3122353Y5332384D02*
G01*
X3140824Y5350855D01*
X3159297Y5360093D01*
X3187006Y5360093D01*
X3205479Y5350855D01*
X3223953Y5332384D01*
X3233188Y5304675D01*
X3233188Y5286202D01*
X3223953Y5258493D01*
X3205479Y5240020D01*
X3187006Y5230784D01*
X3159297Y5230784D01*
X3140824Y5240020D01*
X3122353Y5258493D01*
X2919153Y5424746D02*
G01*
X2919153Y5230784D01*
X2919153Y5332384D02*
G01*
X2900679Y5350855D01*
X2882206Y5360093D01*
X2854497Y5360093D01*
X2836024Y5350855D01*
X2817553Y5332384D01*
X2808315Y5304675D01*
X2808315Y5286202D01*
X2817553Y5258493D01*
X2836024Y5240020D01*
X2854497Y5230784D01*
X2882206Y5230784D01*
X2900679Y5240020D01*
X2919153Y5258493D01*
X2738120Y5360093D02*
G01*
X2682702Y5230784D01*
X2627284Y5360093D02*
G01*
X2682702Y5230784D01*
X2701175Y5193837D01*
X2719646Y5175364D01*
X2738120Y5166128D01*
X2747355Y5166128D01*
X2424084Y5424746D02*
G01*
X2424084Y5230784D01*
X2424084Y5424746D02*
G01*
X2340955Y5424746D01*
X2313246Y5415511D01*
X2304011Y5406275D01*
X2294775Y5387802D01*
X2294775Y5369328D01*
X2304011Y5350855D01*
X2313246Y5341620D01*
X2340955Y5332384D01*
X2424084Y5332384D02*
G01*
X2340955Y5332384D01*
X2313246Y5323146D01*
X2304011Y5313911D01*
X2294775Y5295437D01*
X2294775Y5267728D01*
X2304011Y5249255D01*
X2313246Y5240020D01*
X2340955Y5230784D01*
X2424084Y5230784D01*
X2233815Y5360093D02*
G01*
X2233815Y5230784D01*
X2233815Y5304675D02*
G01*
X2224577Y5332384D01*
X2206104Y5350855D01*
X2187633Y5360093D01*
X2159924Y5360093D01*
X1988126Y5360093D02*
G01*
X1988126Y5230784D01*
X1988126Y5332384D02*
G01*
X2006600Y5350855D01*
X2025073Y5360093D01*
X2052782Y5360093D01*
X2071255Y5350855D01*
X2089726Y5332384D01*
X2098964Y5304675D01*
X2098964Y5286202D01*
X2089726Y5258493D01*
X2071255Y5240020D01*
X2052782Y5230784D01*
X2025073Y5230784D01*
X2006600Y5240020D01*
X1988126Y5258493D01*
X1927166Y5360093D02*
G01*
X1927166Y5230784D01*
X1927166Y5323146D02*
G01*
X1899457Y5350855D01*
X1880984Y5360093D01*
X1853275Y5360093D01*
X1834804Y5350855D01*
X1825566Y5323146D01*
X1825566Y5230784D01*
X1653771Y5424746D02*
G01*
X1653771Y5230784D01*
X1653771Y5332384D02*
G01*
X1672244Y5350855D01*
X1690715Y5360093D01*
X1718424Y5360093D01*
X1736897Y5350855D01*
X1755371Y5332384D01*
X1764606Y5304675D01*
X1764606Y5286202D01*
X1755371Y5258493D01*
X1736897Y5240020D01*
X1718424Y5230784D01*
X1690715Y5230784D01*
X1672244Y5240020D01*
X1653771Y5258493D01*
X1546628Y5360093D02*
G01*
X1565102Y5350855D01*
X1583575Y5332384D01*
X1592811Y5304675D01*
X1592811Y5286202D01*
X1583575Y5258493D01*
X1565102Y5240020D01*
X1546628Y5230784D01*
X1518920Y5230784D01*
X1500446Y5240020D01*
X1481975Y5258493D01*
X1472737Y5286202D01*
X1472737Y5304675D01*
X1481975Y5332384D01*
X1500446Y5350855D01*
X1518920Y5360093D01*
X1546628Y5360093D01*
X1411777Y5360093D02*
G01*
X1411777Y5230784D01*
X1411777Y5323146D02*
G01*
X1384068Y5350855D01*
X1365595Y5360093D01*
X1337886Y5360093D01*
X1319415Y5350855D01*
X1310177Y5323146D01*
X1310177Y5230784D01*
X1106977Y5424746D02*
G01*
X1106977Y5230784D01*
X977668Y5424746D02*
G01*
X1106977Y5295437D01*
X1060795Y5341620D02*
G01*
X977668Y5230784D01*
X916708Y5304675D02*
G01*
X805873Y5304675D01*
X805873Y5323146D01*
X815108Y5341620D01*
X824344Y5350855D01*
X842817Y5360093D01*
X870526Y5360093D01*
X889000Y5350855D01*
X907473Y5332384D01*
X916708Y5304675D01*
X916708Y5286202D01*
X907473Y5258493D01*
X889000Y5240020D01*
X870526Y5230784D01*
X842817Y5230784D01*
X824344Y5240020D01*
X805873Y5258493D01*
X744913Y5424746D02*
G01*
X744913Y5230784D01*
X683953Y5424746D02*
G01*
X683953Y5230784D01*
X613755Y5360093D02*
G01*
X558337Y5230784D01*
X502920Y5360093D02*
G01*
X558337Y5230784D01*
X576811Y5193837D01*
X595284Y5175364D01*
X613755Y5166128D01*
X622993Y5166128D01*
M02*
