G04 Layer: TopSilkLayer*
G04 EasyEDA v6.4.20.6, 2021-07-19T19:11:35--4:00*
G04 e84b6f659e4c45e888895c734b18603a,91999b56e5bf4a9c8a3ad43c56598434,10*
G04 Gerber Generator version 0.2*
G04 Scale: 100 percent, Rotated: No, Reflected: No *
G04 Dimensions in millimeters *
G04 leading zeros omitted , absolute positions ,4 integer and 5 decimal *
%FSLAX45Y45*%
%MOMM*%

%ADD10C,0.2540*%
%ADD19C,0.2581*%
%ADD20C,0.0500*%
%ADD21C,0.4000*%
%ADD22C,0.1524*%

%LPD*%
D22*
X1398778Y3251707D02*
G01*
X1393444Y3262121D01*
X1383029Y3272536D01*
X1372870Y3277615D01*
X1352042Y3277615D01*
X1341628Y3272536D01*
X1331213Y3262121D01*
X1325879Y3251707D01*
X1320800Y3235960D01*
X1320800Y3210052D01*
X1325879Y3194557D01*
X1331213Y3184144D01*
X1341628Y3173729D01*
X1352042Y3168650D01*
X1372870Y3168650D01*
X1383029Y3173729D01*
X1393444Y3184144D01*
X1398778Y3194557D01*
X1433068Y3256787D02*
G01*
X1443481Y3262121D01*
X1458976Y3277615D01*
X1458976Y3168650D01*
X2910077Y3327907D02*
G01*
X2904743Y3338321D01*
X2894329Y3348736D01*
X2884170Y3353815D01*
X2863341Y3353815D01*
X2852927Y3348736D01*
X2842513Y3338321D01*
X2837179Y3327907D01*
X2832100Y3312160D01*
X2832100Y3286252D01*
X2837179Y3270757D01*
X2842513Y3260344D01*
X2852927Y3249929D01*
X2863341Y3244850D01*
X2884170Y3244850D01*
X2894329Y3249929D01*
X2904743Y3260344D01*
X2910077Y3270757D01*
X2949447Y3327907D02*
G01*
X2949447Y3332987D01*
X2954781Y3343402D01*
X2959861Y3348736D01*
X2970275Y3353815D01*
X2991104Y3353815D01*
X3001518Y3348736D01*
X3006597Y3343402D01*
X3011931Y3332987D01*
X3011931Y3322573D01*
X3006597Y3312160D01*
X2996184Y3296665D01*
X2944368Y3244850D01*
X3017011Y3244850D01*
X4923373Y5880607D02*
G01*
X4918039Y5891021D01*
X4907625Y5901436D01*
X4897465Y5906515D01*
X4876637Y5906515D01*
X4866223Y5901436D01*
X4855809Y5891021D01*
X4850475Y5880607D01*
X4845395Y5864860D01*
X4845395Y5838952D01*
X4850475Y5823457D01*
X4855809Y5813044D01*
X4866223Y5802629D01*
X4876637Y5797550D01*
X4897465Y5797550D01*
X4907625Y5802629D01*
X4918039Y5813044D01*
X4923373Y5823457D01*
X4968077Y5906515D02*
G01*
X5025227Y5906515D01*
X4993985Y5864860D01*
X5009479Y5864860D01*
X5019893Y5859779D01*
X5025227Y5854700D01*
X5030307Y5838952D01*
X5030307Y5828537D01*
X5025227Y5813044D01*
X5014813Y5802629D01*
X4999065Y5797550D01*
X4983571Y5797550D01*
X4968077Y5802629D01*
X4962743Y5807710D01*
X4957663Y5818123D01*
X4788915Y3202909D02*
G01*
X4679950Y3202909D01*
X4788915Y3202909D02*
G01*
X4788915Y3156173D01*
X4783836Y3140679D01*
X4778502Y3135345D01*
X4768088Y3130265D01*
X4757674Y3130265D01*
X4747259Y3135345D01*
X4742179Y3140679D01*
X4737100Y3156173D01*
X4737100Y3202909D01*
X4737100Y3166587D02*
G01*
X4679950Y3130265D01*
X4763008Y3090641D02*
G01*
X4768088Y3090641D01*
X4778502Y3085561D01*
X4783836Y3080227D01*
X4788915Y3069813D01*
X4788915Y3049239D01*
X4783836Y3038825D01*
X4778502Y3033491D01*
X4768088Y3028411D01*
X4757674Y3028411D01*
X4747259Y3033491D01*
X4731765Y3043905D01*
X4679950Y3095975D01*
X4679950Y3023077D01*
X4585715Y3990309D02*
G01*
X4476750Y3990309D01*
X4585715Y3990309D02*
G01*
X4585715Y3943573D01*
X4580636Y3928079D01*
X4575302Y3922745D01*
X4564888Y3917665D01*
X4554474Y3917665D01*
X4544059Y3922745D01*
X4538979Y3928079D01*
X4533900Y3943573D01*
X4533900Y3990309D01*
X4533900Y3953987D02*
G01*
X4476750Y3917665D01*
X4564888Y3883375D02*
G01*
X4570222Y3872961D01*
X4585715Y3857213D01*
X4476750Y3857213D01*
X3087115Y1092200D02*
G01*
X2978150Y1092200D01*
X3087115Y1092200D02*
G01*
X3087115Y1055878D01*
X3082036Y1040129D01*
X3071622Y1029970D01*
X3061208Y1024636D01*
X3045459Y1019555D01*
X3019552Y1019555D01*
X3004058Y1024636D01*
X2993643Y1029970D01*
X2983229Y1040129D01*
X2978150Y1055878D01*
X2978150Y1092200D01*
X3066288Y985265D02*
G01*
X3071622Y974852D01*
X3087115Y959104D01*
X2978150Y959104D01*
X-89915Y4480305D02*
G01*
X-11937Y4480305D01*
X3555Y4485386D01*
X13970Y4495800D01*
X19050Y4511547D01*
X19050Y4521962D01*
X13970Y4537455D01*
X3555Y4547870D01*
X-11937Y4552950D01*
X-89915Y4552950D01*
X-69087Y4587239D02*
G01*
X-74421Y4597654D01*
X-89915Y4613402D01*
X19050Y4613402D01*
X3849115Y4889500D02*
G01*
X3771138Y4889500D01*
X3755643Y4884420D01*
X3745229Y4874005D01*
X3740150Y4858257D01*
X3740150Y4847844D01*
X3745229Y4832350D01*
X3755643Y4821936D01*
X3771138Y4816855D01*
X3849115Y4816855D01*
X3849115Y4720081D02*
G01*
X3849115Y4772152D01*
X3802379Y4777231D01*
X3807459Y4772152D01*
X3812793Y4756404D01*
X3812793Y4740910D01*
X3807459Y4725415D01*
X3797300Y4715002D01*
X3781552Y4709668D01*
X3771138Y4709668D01*
X3755643Y4715002D01*
X3745229Y4725415D01*
X3740150Y4740910D01*
X3740150Y4756404D01*
X3745229Y4772152D01*
X3750309Y4777231D01*
X3760724Y4782565D01*
X1244600Y1804415D02*
G01*
X1244600Y1726437D01*
X1249679Y1710944D01*
X1260094Y1700529D01*
X1275842Y1695450D01*
X1286255Y1695450D01*
X1301750Y1700529D01*
X1312163Y1710944D01*
X1317244Y1726437D01*
X1317244Y1804415D01*
X1356868Y1778507D02*
G01*
X1356868Y1783587D01*
X1361947Y1794002D01*
X1367281Y1799336D01*
X1377695Y1804415D01*
X1398270Y1804415D01*
X1408684Y1799336D01*
X1414018Y1794002D01*
X1419097Y1783587D01*
X1419097Y1773173D01*
X1414018Y1762760D01*
X1403604Y1747265D01*
X1351534Y1695450D01*
X1424431Y1695450D01*
X3771900Y2045715D02*
G01*
X3771900Y1967737D01*
X3776979Y1952244D01*
X3787393Y1941829D01*
X3803141Y1936750D01*
X3813556Y1936750D01*
X3829050Y1941829D01*
X3839463Y1952244D01*
X3844543Y1967737D01*
X3844543Y2045715D01*
X3889247Y2045715D02*
G01*
X3946397Y2045715D01*
X3915409Y2004060D01*
X3930904Y2004060D01*
X3941318Y1998979D01*
X3946397Y1993900D01*
X3951731Y1978152D01*
X3951731Y1967737D01*
X3946397Y1952244D01*
X3935984Y1941829D01*
X3920490Y1936750D01*
X3904995Y1936750D01*
X3889247Y1941829D01*
X3884168Y1946910D01*
X3878834Y1957323D01*
G36*
X1765300Y3014980D02*
G01*
X1765300Y2021839D01*
X1770380Y2016760D01*
X1877060Y2141220D01*
X1887220Y2146300D01*
X1922780Y2204720D01*
X1940560Y2242820D01*
X1968500Y2283460D01*
X1978660Y2344420D01*
X1996439Y2362200D01*
X1996439Y2443480D01*
X2011832Y2458872D01*
X2011832Y2557932D01*
X2014220Y2560320D01*
X2004060Y2570480D01*
X1996439Y2656840D01*
X1981200Y2677160D01*
X1968500Y2750820D01*
X1935480Y2796540D01*
X1925320Y2837180D01*
X1882139Y2890520D01*
X1882139Y2893060D01*
G37*
G36*
X3276600Y3091180D02*
G01*
X3276600Y2098040D01*
X3281679Y2092960D01*
X3388360Y2217420D01*
X3398520Y2222500D01*
X3434079Y2280920D01*
X3451860Y2319020D01*
X3479800Y2359660D01*
X3489960Y2420620D01*
X3507740Y2438400D01*
X3507740Y2519680D01*
X3523132Y2535072D01*
X3523132Y2634132D01*
X3525520Y2636520D01*
X3515360Y2646680D01*
X3507740Y2733040D01*
X3492500Y2753360D01*
X3479800Y2827020D01*
X3446779Y2872740D01*
X3436620Y2913380D01*
X3393440Y2966720D01*
X3393440Y2969260D01*
G37*
G36*
X5378805Y5562600D02*
G01*
X5378805Y4343400D01*
X5397957Y4360418D01*
X5416499Y4378045D01*
X5434533Y4396282D01*
X5451957Y4415028D01*
X5468772Y4434382D01*
X5484977Y4454194D01*
X5500522Y4474565D01*
X5515406Y4495393D01*
X5529681Y4516729D01*
X5536539Y4527499D01*
X5549696Y4549495D01*
X5562193Y4571847D01*
X5573979Y4594606D01*
X5585002Y4617720D01*
X5590286Y4629404D01*
X5600192Y4653026D01*
X5609336Y4676952D01*
X5617768Y4701133D01*
X5625388Y4725568D01*
X5632246Y4750257D01*
X5638292Y4775149D01*
X5643575Y4800244D01*
X5648045Y4825441D01*
X5651703Y4850790D01*
X5654548Y4876241D01*
X5656580Y4901793D01*
X5657799Y4927396D01*
X5658205Y4953000D01*
X5657799Y4978603D01*
X5656580Y5004206D01*
X5654548Y5029758D01*
X5651703Y5055209D01*
X5648045Y5080558D01*
X5643575Y5105755D01*
X5638292Y5130850D01*
X5632246Y5155742D01*
X5625388Y5180431D01*
X5617768Y5204866D01*
X5609336Y5229047D01*
X5600192Y5252974D01*
X5590286Y5276596D01*
X5579567Y5299913D01*
X5568188Y5322824D01*
X5556046Y5345379D01*
X5543194Y5367528D01*
X5536539Y5378500D01*
X5522620Y5399989D01*
X5508040Y5421071D01*
X5492851Y5441645D01*
X5476951Y5461762D01*
X5460441Y5481370D01*
X5443321Y5500420D01*
X5425592Y5518912D01*
X5407304Y5536844D01*
X5388406Y5554167D01*
G37*
D10*
X982979Y2532379D02*
G01*
X815339Y2532379D01*
X896620Y2448560D02*
G01*
X896620Y2621279D01*
X2494279Y2608579D02*
G01*
X2326640Y2608579D01*
X2407920Y2524760D02*
G01*
X2407920Y2697479D01*
X4200235Y4899660D02*
G01*
X4200235Y5072379D01*
X4289135Y4983479D02*
G01*
X4121495Y4983479D01*
X4628499Y3437704D02*
G01*
X4388500Y3437704D01*
X4388500Y3087705D02*
G01*
X4388500Y2937705D01*
X4628499Y3087705D02*
G01*
X4628499Y2937705D01*
X4388500Y3287704D02*
G01*
X4388500Y3437704D01*
X4628499Y3287704D02*
G01*
X4628499Y3437704D01*
X4628499Y2937705D02*
G01*
X4388500Y2937705D01*
X4425299Y4225104D02*
G01*
X4185300Y4225104D01*
X4185300Y3875105D02*
G01*
X4185300Y3725105D01*
X4425299Y3875105D02*
G01*
X4425299Y3725105D01*
X4185300Y4075104D02*
G01*
X4185300Y4225104D01*
X4425299Y4075104D02*
G01*
X4425299Y4225104D01*
X4425299Y3725105D02*
G01*
X4185300Y3725105D01*
X1866900Y850900D02*
G01*
X2908300Y850900D01*
X2907614Y1261389D02*
G01*
X2907614Y801395D01*
X1867611Y801395D01*
X1867611Y1261389D01*
X2907614Y1261389D01*
D19*
X202999Y5025798D02*
G01*
X202999Y3965801D01*
X62999Y3965801D02*
G01*
X546000Y3965801D01*
X62999Y5025798D02*
G01*
X62999Y3965801D01*
X546000Y3965801D02*
G01*
X546000Y5025798D01*
X546000Y5025798D02*
G01*
X62999Y5025798D01*
D10*
X3688410Y6289497D02*
G01*
X3688410Y3489502D01*
X1188415Y3489502D01*
X1188415Y6289497D01*
X3688410Y6289497D01*
X869599Y1016751D02*
G01*
X1619600Y1016751D01*
X869599Y1453631D02*
G01*
X1619600Y1453631D01*
X869599Y661898D02*
G01*
X1619600Y661898D01*
X1619600Y1661899D02*
G01*
X1619600Y661898D01*
X869599Y1661899D02*
G01*
X869599Y661898D01*
X869599Y1661899D02*
G01*
X1619600Y1661899D01*
X3396899Y1258051D02*
G01*
X4146900Y1258051D01*
X3396899Y1694931D02*
G01*
X4146900Y1694931D01*
X3396899Y903198D02*
G01*
X4146900Y903198D01*
X4146900Y1903199D02*
G01*
X4146900Y903198D01*
X3396899Y1903199D02*
G01*
X3396899Y903198D01*
X3396899Y1903199D02*
G01*
X4146900Y1903199D01*
G75*
G01*
X1394460Y3139694D02*
G03*
X1405382Y3139440I-9069J-624934D01*
G75*
G01*
X2905760Y3215894D02*
G03*
X2916682Y3215640I-9069J-624934D01*
D20*
G75*
G01*
X4865715Y5753100D02*
G03*
X4879685Y5752846I-7557J-799965D01*
D21*
G75*
G01*
X2628900Y1308100D02*
G03*
X2628646Y1308100I-127J20000D01*
D10*
G75*
G01
X616407Y4155796D02*
G03X616407Y4155796I-25400J0D01*
M02*
