G04 Layer: TopLayer*
G04 EasyEDA v6.4.20.6, 2021-07-19T19:11:35--4:00*
G04 e84b6f659e4c45e888895c734b18603a,91999b56e5bf4a9c8a3ad43c56598434,10*
G04 Gerber Generator version 0.2*
G04 Scale: 100 percent, Rotated: No, Reflected: No *
G04 Dimensions in millimeters *
G04 leading zeros omitted , absolute positions ,4 integer and 5 decimal *
%FSLAX45Y45*%
%MOMM*%

%ADD11C,0.7000*%
%ADD12C,0.6100*%
%ADD13R,1.9000X1.2000*%
%ADD14R,6.0000X6.0000*%
%ADD15C,2.2000*%
%ADD17C,1.6000*%
%ADD18C,2.0000*%

%LPD*%
G36*
X-103885Y673354D02*
G01*
X-107797Y674116D01*
X-111048Y676351D01*
X-113283Y679602D01*
X-114046Y683514D01*
X-114046Y6303975D01*
X-113283Y6307886D01*
X-111048Y6311188D01*
X-107797Y6313373D01*
X-103885Y6314135D01*
X5806186Y6314135D01*
X5810097Y6313373D01*
X5813348Y6311188D01*
X5815584Y6307886D01*
X5816346Y6303975D01*
X5816346Y683514D01*
X5815584Y679602D01*
X5813348Y676351D01*
X5810097Y674116D01*
X5806186Y673354D01*
G37*

%LPC*%
G36*
X304546Y774395D02*
G01*
X322529Y775817D01*
X340360Y779068D01*
X357682Y784098D01*
X374446Y790905D01*
X390398Y799439D01*
X405434Y809498D01*
X419303Y821080D01*
X431952Y834034D01*
X443128Y848207D01*
X452882Y863498D01*
X460959Y879652D01*
X467309Y896569D01*
X471932Y914095D01*
X474726Y931926D01*
X475640Y950010D01*
X474726Y968044D01*
X471932Y985926D01*
X467309Y1003401D01*
X460959Y1020318D01*
X452882Y1036523D01*
X443128Y1051763D01*
X431952Y1065936D01*
X419303Y1078890D01*
X405434Y1090472D01*
X390398Y1100582D01*
X374446Y1109065D01*
X357682Y1115872D01*
X340360Y1120952D01*
X322529Y1124204D01*
X304546Y1125575D01*
X286461Y1125118D01*
X268528Y1122781D01*
X250901Y1118666D01*
X233832Y1112723D01*
X217474Y1105052D01*
X201930Y1095705D01*
X187502Y1084884D01*
X174193Y1072591D01*
X162255Y1059027D01*
X151790Y1044244D01*
X142900Y1028547D01*
X135636Y1011936D01*
X130149Y994714D01*
X126441Y977036D01*
X124612Y959053D01*
X124612Y940968D01*
X126441Y922985D01*
X130149Y905256D01*
X135636Y888034D01*
X142900Y871474D01*
X151790Y855726D01*
X162255Y840994D01*
X174193Y827430D01*
X187502Y815136D01*
X201930Y804265D01*
X217474Y794969D01*
X233832Y787298D01*
X250901Y781354D01*
X268528Y777189D01*
X286461Y774903D01*
G37*
G36*
X5504535Y774395D02*
G01*
X5522569Y775817D01*
X5540349Y779068D01*
X5557723Y784098D01*
X5574436Y790905D01*
X5590438Y799439D01*
X5605424Y809498D01*
X5619292Y821080D01*
X5631942Y834034D01*
X5643168Y848207D01*
X5652871Y863498D01*
X5660948Y879652D01*
X5667298Y896569D01*
X5671921Y914095D01*
X5674715Y931926D01*
X5675630Y950010D01*
X5674715Y968044D01*
X5671921Y985926D01*
X5667298Y1003401D01*
X5660948Y1020318D01*
X5652871Y1036523D01*
X5643168Y1051763D01*
X5631942Y1065936D01*
X5619292Y1078890D01*
X5605424Y1090472D01*
X5590438Y1100582D01*
X5574436Y1109065D01*
X5557723Y1115872D01*
X5540349Y1120952D01*
X5522569Y1124204D01*
X5504535Y1125575D01*
X5486450Y1125118D01*
X5468518Y1122781D01*
X5450890Y1118666D01*
X5433822Y1112723D01*
X5417464Y1105052D01*
X5401970Y1095705D01*
X5387492Y1084884D01*
X5374233Y1072591D01*
X5362295Y1059027D01*
X5351780Y1044244D01*
X5342890Y1028547D01*
X5335625Y1011936D01*
X5330139Y994714D01*
X5326430Y977036D01*
X5324602Y959053D01*
X5324602Y940968D01*
X5326430Y922985D01*
X5330139Y905256D01*
X5335625Y888034D01*
X5342890Y871474D01*
X5351780Y855726D01*
X5362295Y840994D01*
X5374233Y827430D01*
X5387492Y815136D01*
X5401970Y804265D01*
X5417464Y794969D01*
X5433822Y787298D01*
X5450890Y781354D01*
X5468518Y777189D01*
X5486450Y774903D01*
G37*
G36*
X2307132Y794816D02*
G01*
X2442667Y794816D01*
X2450693Y795324D01*
X2460498Y797407D01*
X2462479Y798017D01*
X2469794Y801065D01*
X2471674Y802030D01*
X2480056Y807466D01*
X2486101Y812800D01*
X2561031Y887780D01*
X2564333Y889965D01*
X2568244Y890727D01*
X2728315Y890727D01*
X2734614Y891438D01*
X2739999Y893368D01*
X2744876Y896416D01*
X2748889Y900430D01*
X2751937Y905306D01*
X2753868Y910691D01*
X2754579Y916990D01*
X2754579Y970584D01*
X2755341Y974496D01*
X2757525Y977747D01*
X2760827Y979982D01*
X2764688Y980744D01*
X3514801Y980744D01*
X3522827Y981252D01*
X3532632Y983335D01*
X3534613Y983945D01*
X3541928Y986993D01*
X3543808Y987958D01*
X3552190Y993394D01*
X3558235Y998728D01*
X3907891Y1348384D01*
X3910533Y1350314D01*
X3913632Y1351280D01*
X3916883Y1351229D01*
X3931767Y1348486D01*
X3946906Y1347571D01*
X3962044Y1348486D01*
X3976979Y1351229D01*
X3991457Y1355750D01*
X4005275Y1361948D01*
X4018279Y1369822D01*
X4030218Y1379169D01*
X4040936Y1389888D01*
X4050284Y1401826D01*
X4058158Y1414830D01*
X4064355Y1428648D01*
X4068876Y1443126D01*
X4071620Y1458061D01*
X4072534Y1473200D01*
X4071620Y1488338D01*
X4068876Y1503222D01*
X4068826Y1506474D01*
X4069791Y1509572D01*
X4071721Y1512214D01*
X4386072Y1826564D01*
X4391406Y1832610D01*
X4396841Y1840992D01*
X4397806Y1842871D01*
X4400854Y1850186D01*
X4403242Y1859940D01*
X4403547Y1861972D01*
X4404055Y1869998D01*
X4404055Y2931871D01*
X4404817Y2935782D01*
X4407052Y2939084D01*
X4410303Y2941269D01*
X4414215Y2942031D01*
X4602937Y2942031D01*
X4609185Y2942742D01*
X4614621Y2944622D01*
X4619447Y2947720D01*
X4623511Y2951734D01*
X4626559Y2956610D01*
X4627829Y2960217D01*
X4629962Y2963773D01*
X4633366Y2966161D01*
X4637430Y2967024D01*
X4673295Y2967024D01*
X4681321Y2967532D01*
X4691126Y2969615D01*
X4693107Y2970225D01*
X4700422Y2973273D01*
X4702302Y2974238D01*
X4710684Y2979674D01*
X4716729Y2985008D01*
X5294376Y3562654D01*
X5299710Y3568700D01*
X5305145Y3577082D01*
X5306110Y3578961D01*
X5309158Y3586276D01*
X5311546Y3596030D01*
X5311851Y3598062D01*
X5312359Y3606088D01*
X5312359Y4825746D01*
X5312968Y4829200D01*
X5314746Y4832299D01*
X5317439Y4834534D01*
X5326329Y4839665D01*
X5338978Y4849114D01*
X5350459Y4859934D01*
X5360568Y4872024D01*
X5369255Y4885182D01*
X5376316Y4899253D01*
X5381752Y4914087D01*
X5385358Y4929428D01*
X5387187Y4945126D01*
X5387187Y4960874D01*
X5385358Y4976571D01*
X5381752Y4991912D01*
X5376316Y5006746D01*
X5369255Y5020818D01*
X5360568Y5033975D01*
X5350459Y5046065D01*
X5338978Y5056886D01*
X5326329Y5066334D01*
X5312664Y5074208D01*
X5298186Y5080457D01*
X5283098Y5084978D01*
X5267553Y5087721D01*
X5251805Y5088636D01*
X5236057Y5087721D01*
X5220512Y5084978D01*
X5205425Y5080457D01*
X5190947Y5074208D01*
X5177282Y5066334D01*
X5164632Y5056886D01*
X5153152Y5046065D01*
X5142992Y5033975D01*
X5134356Y5020818D01*
X5127244Y5006746D01*
X5121859Y4991912D01*
X5118201Y4976571D01*
X5116372Y4960874D01*
X5116372Y4945126D01*
X5118201Y4929428D01*
X5121859Y4914087D01*
X5127244Y4899253D01*
X5134356Y4885182D01*
X5142992Y4872024D01*
X5153152Y4859934D01*
X5164632Y4849114D01*
X5177282Y4839665D01*
X5185968Y4834636D01*
X5188661Y4832400D01*
X5190439Y4829302D01*
X5191048Y4825847D01*
X5191048Y3635095D01*
X5190286Y3631234D01*
X5188051Y3627932D01*
X4651451Y3091332D01*
X4648149Y3089097D01*
X4644288Y3088335D01*
X4637430Y3088335D01*
X4633366Y3089198D01*
X4629962Y3091586D01*
X4627829Y3095142D01*
X4626559Y3098800D01*
X4623511Y3103676D01*
X4619447Y3107690D01*
X4614621Y3110738D01*
X4609185Y3112668D01*
X4602937Y3113379D01*
X4414062Y3113379D01*
X4407814Y3112668D01*
X4402378Y3110738D01*
X4397552Y3107690D01*
X4393488Y3103676D01*
X4390440Y3098800D01*
X4389170Y3095142D01*
X4387037Y3091586D01*
X4383633Y3089198D01*
X4379569Y3088335D01*
X4343603Y3088335D01*
X4338370Y3088132D01*
X4333443Y3087522D01*
X4328515Y3086455D01*
X4323689Y3085033D01*
X4319016Y3083204D01*
X4314545Y3081020D01*
X4310227Y3078429D01*
X4306163Y3075533D01*
X4302302Y3072282D01*
X4298797Y3068777D01*
X4295546Y3064916D01*
X4292650Y3060852D01*
X4290060Y3056534D01*
X4287875Y3052064D01*
X4286046Y3047390D01*
X4284624Y3042564D01*
X4283557Y3037636D01*
X4282948Y3032709D01*
X4282744Y3027476D01*
X4282744Y1899005D01*
X4281982Y1895144D01*
X4279747Y1891842D01*
X3985920Y1598015D01*
X3983278Y1596085D01*
X3980179Y1595120D01*
X3976928Y1595170D01*
X3962044Y1597914D01*
X3946906Y1598828D01*
X3931767Y1597914D01*
X3916832Y1595170D01*
X3902354Y1590649D01*
X3888536Y1584452D01*
X3875532Y1576578D01*
X3863594Y1567230D01*
X3852875Y1556512D01*
X3843528Y1544574D01*
X3835654Y1531569D01*
X3829405Y1517751D01*
X3824935Y1503273D01*
X3822192Y1488338D01*
X3821277Y1473200D01*
X3822192Y1458061D01*
X3824884Y1443177D01*
X3824986Y1439926D01*
X3824020Y1436827D01*
X3822090Y1434185D01*
X3492957Y1105052D01*
X3489655Y1102817D01*
X3485794Y1102055D01*
X2764688Y1102055D01*
X2760827Y1102817D01*
X2757525Y1105052D01*
X2755341Y1108303D01*
X2754579Y1112215D01*
X2754579Y1165809D01*
X2753868Y1172108D01*
X2751937Y1177493D01*
X2748889Y1182370D01*
X2744876Y1186383D01*
X2739999Y1189431D01*
X2734614Y1191361D01*
X2728315Y1192072D01*
X2529484Y1192072D01*
X2523185Y1191361D01*
X2517800Y1189431D01*
X2512923Y1186383D01*
X2508910Y1182370D01*
X2505862Y1177493D01*
X2503932Y1172108D01*
X2503271Y1165809D01*
X2503271Y1132941D01*
X2502306Y1128674D01*
X2499664Y1125220D01*
X2495804Y1123137D01*
X2491435Y1122934D01*
X2487422Y1124508D01*
X2484374Y1127709D01*
X2478278Y1137767D01*
X2468930Y1149705D01*
X2458212Y1160424D01*
X2446274Y1169771D01*
X2440482Y1173327D01*
X2437841Y1175562D01*
X2436164Y1178610D01*
X2435555Y1182014D01*
X2435555Y1457096D01*
X2436317Y1460957D01*
X2438552Y1464259D01*
X3370072Y2395778D01*
X3375406Y2401824D01*
X3380841Y2410206D01*
X3381806Y2412085D01*
X3384854Y2419400D01*
X3387242Y2429154D01*
X3387547Y2431186D01*
X3388055Y2439212D01*
X3388055Y2659583D01*
X3387547Y2667609D01*
X3385464Y2677414D01*
X3384854Y2679395D01*
X3381806Y2686710D01*
X3380841Y2688590D01*
X3375406Y2696972D01*
X3370072Y2703017D01*
X3270199Y2802890D01*
X3264153Y2808224D01*
X3255772Y2813659D01*
X3253892Y2814624D01*
X3246577Y2817672D01*
X3236823Y2820060D01*
X3234791Y2820365D01*
X3226765Y2820873D01*
X2149449Y2820873D01*
X2145588Y2821635D01*
X2142286Y2823870D01*
X768299Y4197858D01*
X766114Y4201109D01*
X765302Y4205020D01*
X766114Y4208932D01*
X768299Y4212183D01*
X771601Y4214418D01*
X775462Y4215180D01*
X3650132Y4215180D01*
X3653993Y4214418D01*
X3657295Y4212183D01*
X4097070Y3772408D01*
X4103115Y3767074D01*
X4111498Y3761638D01*
X4113377Y3760673D01*
X4120692Y3757625D01*
X4130446Y3755237D01*
X4132478Y3754932D01*
X4140504Y3754424D01*
X4176369Y3754424D01*
X4180433Y3753561D01*
X4183837Y3751173D01*
X4185970Y3747617D01*
X4187240Y3744010D01*
X4190288Y3739134D01*
X4194352Y3735120D01*
X4199178Y3732022D01*
X4204614Y3730142D01*
X4210862Y3729431D01*
X4399584Y3729431D01*
X4403496Y3728669D01*
X4406747Y3726484D01*
X4408982Y3723182D01*
X4409744Y3719271D01*
X4409744Y3634079D01*
X4408982Y3630218D01*
X4406747Y3626916D01*
X4300728Y3520897D01*
X4295394Y3514851D01*
X4289958Y3506470D01*
X4288993Y3504590D01*
X4285945Y3497275D01*
X4283557Y3487521D01*
X4283252Y3485489D01*
X4282744Y3477463D01*
X4282744Y3347923D01*
X4282948Y3342690D01*
X4283557Y3337763D01*
X4284624Y3332835D01*
X4286046Y3328009D01*
X4287875Y3323336D01*
X4290060Y3318865D01*
X4292650Y3314547D01*
X4295546Y3310483D01*
X4298797Y3306622D01*
X4302302Y3303117D01*
X4306163Y3299866D01*
X4310227Y3296970D01*
X4314545Y3294379D01*
X4319016Y3292195D01*
X4323689Y3290366D01*
X4328515Y3288944D01*
X4333443Y3287877D01*
X4338370Y3287268D01*
X4343603Y3287064D01*
X4379569Y3287064D01*
X4383633Y3286201D01*
X4387037Y3283813D01*
X4389170Y3280257D01*
X4390440Y3276600D01*
X4393488Y3271774D01*
X4397552Y3267710D01*
X4402378Y3264662D01*
X4407814Y3262782D01*
X4414062Y3262071D01*
X4602937Y3262071D01*
X4609185Y3262782D01*
X4614621Y3264662D01*
X4619447Y3267710D01*
X4623511Y3271774D01*
X4626559Y3276600D01*
X4628438Y3282035D01*
X4629150Y3288284D01*
X4629150Y3407156D01*
X4628438Y3413404D01*
X4626559Y3418789D01*
X4623511Y3423665D01*
X4619447Y3427729D01*
X4614621Y3430778D01*
X4609185Y3432657D01*
X4602937Y3433368D01*
X4414215Y3433368D01*
X4410303Y3434130D01*
X4407052Y3436315D01*
X4404817Y3439617D01*
X4404055Y3443528D01*
X4404055Y3448456D01*
X4404817Y3452317D01*
X4407052Y3455619D01*
X4513072Y3561638D01*
X4518406Y3567684D01*
X4523841Y3576065D01*
X4524806Y3577945D01*
X4527854Y3585260D01*
X4530242Y3595014D01*
X4530547Y3597046D01*
X4531055Y3605072D01*
X4531055Y3814876D01*
X4530852Y3820109D01*
X4530242Y3825036D01*
X4529175Y3829964D01*
X4527753Y3834790D01*
X4525924Y3839464D01*
X4523740Y3843934D01*
X4521149Y3848252D01*
X4518253Y3852316D01*
X4515002Y3856177D01*
X4511497Y3859682D01*
X4507636Y3862933D01*
X4503572Y3865829D01*
X4499254Y3868420D01*
X4494784Y3870604D01*
X4490110Y3872433D01*
X4485284Y3873855D01*
X4480356Y3874922D01*
X4475429Y3875532D01*
X4470196Y3875735D01*
X4434230Y3875735D01*
X4430166Y3876598D01*
X4426762Y3878986D01*
X4424629Y3882542D01*
X4423359Y3886200D01*
X4420311Y3891076D01*
X4416247Y3895090D01*
X4411421Y3898137D01*
X4405985Y3900068D01*
X4399737Y3900779D01*
X4210862Y3900779D01*
X4204614Y3900068D01*
X4199178Y3898137D01*
X4194352Y3895090D01*
X4190288Y3891076D01*
X4187240Y3886200D01*
X4185970Y3882542D01*
X4183837Y3878986D01*
X4180433Y3876598D01*
X4176369Y3875735D01*
X4169511Y3875735D01*
X4165650Y3876497D01*
X4162348Y3878732D01*
X3722573Y4318508D01*
X3716528Y4323842D01*
X3708146Y4329277D01*
X3706266Y4330242D01*
X3698951Y4333290D01*
X3689197Y4335678D01*
X3687165Y4335983D01*
X3679139Y4336491D01*
X727100Y4336491D01*
X716737Y4335627D01*
X707034Y4333189D01*
X703986Y4331868D01*
X700074Y4331004D01*
X696163Y4331716D01*
X692810Y4333900D01*
X690575Y4337202D01*
X689762Y4341114D01*
X690524Y4345025D01*
X692708Y4348327D01*
X1170482Y4825847D01*
X1173784Y4828082D01*
X1177645Y4828844D01*
X1252575Y4828844D01*
X1256487Y4828082D01*
X1259789Y4825847D01*
X1261973Y4822596D01*
X1262735Y4818684D01*
X1262735Y4590084D01*
X1263446Y4583785D01*
X1265326Y4578400D01*
X1268374Y4573524D01*
X1272438Y4569510D01*
X1277315Y4566462D01*
X1282700Y4564532D01*
X1288948Y4563821D01*
X1887829Y4563821D01*
X1894078Y4564532D01*
X1899513Y4566462D01*
X1904339Y4569510D01*
X1908403Y4573524D01*
X1911451Y4578400D01*
X1913331Y4583785D01*
X1914042Y4590084D01*
X1914042Y5188915D01*
X1913331Y5195214D01*
X1911451Y5200599D01*
X1908403Y5205476D01*
X1904339Y5209489D01*
X1899513Y5212537D01*
X1894078Y5214467D01*
X1887829Y5215128D01*
X1288948Y5215128D01*
X1282700Y5214467D01*
X1277315Y5212537D01*
X1272438Y5209489D01*
X1268374Y5205476D01*
X1265326Y5200599D01*
X1263446Y5195214D01*
X1262735Y5188915D01*
X1262735Y4960315D01*
X1261973Y4956403D01*
X1259789Y4953152D01*
X1256487Y4950917D01*
X1252575Y4950155D01*
X1148638Y4950155D01*
X1140663Y4949647D01*
X1138580Y4949342D01*
X1130858Y4947564D01*
X1121511Y4943906D01*
X1119632Y4942941D01*
X1111250Y4937506D01*
X1105255Y4932172D01*
X547319Y4374540D01*
X544017Y4372305D01*
X540156Y4371543D01*
X472541Y4371543D01*
X468325Y4372457D01*
X464870Y4374997D01*
X455676Y4385513D01*
X444804Y4395063D01*
X442264Y4398467D01*
X441350Y4403902D01*
X442264Y4408119D01*
X444804Y4411573D01*
X455676Y4421124D01*
X464820Y4431487D01*
X472490Y4442968D01*
X475691Y4449470D01*
X427329Y4449470D01*
X427329Y4420565D01*
X426618Y4416806D01*
X424535Y4413554D01*
X421436Y4411319D01*
X417728Y4410405D01*
X413918Y4410913D01*
X408330Y4412843D01*
X394766Y4415536D01*
X381000Y4416450D01*
X367233Y4415536D01*
X353669Y4412843D01*
X348081Y4410913D01*
X344271Y4410405D01*
X340563Y4411319D01*
X337464Y4413554D01*
X335381Y4416806D01*
X334670Y4420565D01*
X334670Y4449470D01*
X286308Y4449470D01*
X289509Y4442968D01*
X297180Y4431487D01*
X306324Y4421124D01*
X317195Y4411573D01*
X319735Y4408119D01*
X320649Y4402683D01*
X319735Y4398467D01*
X317195Y4395063D01*
X306324Y4385513D01*
X297180Y4375099D01*
X289509Y4363618D01*
X283413Y4351223D01*
X278942Y4338116D01*
X276250Y4324604D01*
X275386Y4310786D01*
X276250Y4297019D01*
X278942Y4283456D01*
X283413Y4270400D01*
X289509Y4258005D01*
X297180Y4246473D01*
X306324Y4236110D01*
X317195Y4226560D01*
X319735Y4223105D01*
X320649Y4217670D01*
X319735Y4213504D01*
X317195Y4210050D01*
X306324Y4200499D01*
X297180Y4190085D01*
X289509Y4178604D01*
X283413Y4166209D01*
X278942Y4153154D01*
X276250Y4139590D01*
X275386Y4125823D01*
X276250Y4112006D01*
X278942Y4098442D01*
X283413Y4085386D01*
X289509Y4072991D01*
X297180Y4061510D01*
X306324Y4051096D01*
X316687Y4042003D01*
X328168Y4034332D01*
X340563Y4028186D01*
X353669Y4023766D01*
X367233Y4021074D01*
X381000Y4020159D01*
X394766Y4021074D01*
X408330Y4023766D01*
X421436Y4028186D01*
X433832Y4034332D01*
X445312Y4042003D01*
X455676Y4051096D01*
X464820Y4061510D01*
X472490Y4072991D01*
X478586Y4085386D01*
X483057Y4098442D01*
X485749Y4112006D01*
X486613Y4125823D01*
X485749Y4139590D01*
X483057Y4153154D01*
X478586Y4166209D01*
X472490Y4178604D01*
X464820Y4190085D01*
X455676Y4200499D01*
X444804Y4210050D01*
X442264Y4213504D01*
X441350Y4218940D01*
X442264Y4223105D01*
X444804Y4226560D01*
X455676Y4236110D01*
X465023Y4246778D01*
X468477Y4249318D01*
X472693Y4250232D01*
X540156Y4250232D01*
X544017Y4249470D01*
X547319Y4247235D01*
X2077008Y2717546D01*
X2083054Y2712212D01*
X2091436Y2706776D01*
X2093315Y2705811D01*
X2100630Y2702763D01*
X2110384Y2700375D01*
X2112416Y2700070D01*
X2120442Y2699562D01*
X2547010Y2699562D01*
X2550769Y2698851D01*
X2553970Y2696768D01*
X2556205Y2693720D01*
X2557170Y2690012D01*
X2556662Y2686202D01*
X2554782Y2682849D01*
X2545486Y2671775D01*
X2536850Y2658618D01*
X2529738Y2644546D01*
X2524353Y2629712D01*
X2520746Y2614371D01*
X2518918Y2598674D01*
X2518918Y2582926D01*
X2520746Y2567228D01*
X2524353Y2551887D01*
X2529738Y2537053D01*
X2536850Y2522982D01*
X2545486Y2509824D01*
X2555646Y2497734D01*
X2567127Y2486914D01*
X2579776Y2477465D01*
X2593441Y2469591D01*
X2607919Y2463342D01*
X2623007Y2458821D01*
X2638552Y2456078D01*
X2654300Y2455164D01*
X2670048Y2456078D01*
X2685592Y2458821D01*
X2700680Y2463342D01*
X2715158Y2469591D01*
X2728823Y2477465D01*
X2741472Y2486914D01*
X2752953Y2497734D01*
X2763113Y2509824D01*
X2771749Y2522982D01*
X2778861Y2537053D01*
X2784246Y2551887D01*
X2787853Y2567228D01*
X2789682Y2582926D01*
X2789682Y2598674D01*
X2787853Y2614371D01*
X2784246Y2629712D01*
X2778861Y2644546D01*
X2771749Y2658618D01*
X2763113Y2671775D01*
X2753817Y2682849D01*
X2751937Y2686202D01*
X2751429Y2690012D01*
X2752394Y2693720D01*
X2754630Y2696768D01*
X2757830Y2698851D01*
X2761589Y2699562D01*
X3055010Y2699562D01*
X3058769Y2698851D01*
X3061970Y2696768D01*
X3064205Y2693720D01*
X3065170Y2690012D01*
X3064662Y2686202D01*
X3062782Y2682849D01*
X3053486Y2671775D01*
X3044850Y2658618D01*
X3041599Y2652166D01*
X3100933Y2652166D01*
X3100933Y2689402D01*
X3101746Y2693314D01*
X3103930Y2696565D01*
X3107232Y2698800D01*
X3111093Y2699562D01*
X3197758Y2699562D01*
X3201619Y2698800D01*
X3204921Y2696565D01*
X3220669Y2680817D01*
X3222853Y2677515D01*
X3223666Y2673654D01*
X3223666Y2652166D01*
X3245154Y2652166D01*
X3249015Y2651353D01*
X3252317Y2649169D01*
X3263747Y2637739D01*
X3265982Y2634437D01*
X3266744Y2630576D01*
X3266744Y2539593D01*
X3265982Y2535732D01*
X3263747Y2532430D01*
X3260496Y2530246D01*
X3256584Y2529433D01*
X3223666Y2529433D01*
X3223666Y2469845D01*
X3236823Y2477465D01*
X3249625Y2487015D01*
X3252927Y2489098D01*
X3256788Y2489809D01*
X3260598Y2488946D01*
X3263849Y2486761D01*
X3265982Y2483459D01*
X3266744Y2479649D01*
X3266744Y2468219D01*
X3265982Y2464358D01*
X3263747Y2461056D01*
X2332228Y1529537D01*
X2326894Y1523492D01*
X2321458Y1515110D01*
X2320493Y1513230D01*
X2317445Y1505915D01*
X2315057Y1496161D01*
X2314752Y1494129D01*
X2314244Y1486103D01*
X2314244Y1182014D01*
X2313635Y1178610D01*
X2311958Y1175562D01*
X2309317Y1173327D01*
X2303526Y1169771D01*
X2291588Y1160424D01*
X2280869Y1149705D01*
X2271522Y1137767D01*
X2263648Y1124762D01*
X2257145Y1110386D01*
X2254910Y1107236D01*
X2251659Y1105154D01*
X2247900Y1104392D01*
X2244090Y1105154D01*
X2240838Y1107236D01*
X2238603Y1110386D01*
X2232152Y1124762D01*
X2224278Y1137767D01*
X2214930Y1149705D01*
X2204212Y1160424D01*
X2192274Y1169771D01*
X2179269Y1177645D01*
X2165451Y1183894D01*
X2150973Y1188364D01*
X2136038Y1191107D01*
X2120900Y1192022D01*
X2105761Y1191107D01*
X2090826Y1188364D01*
X2076348Y1183894D01*
X2062530Y1177645D01*
X2049525Y1169771D01*
X2037588Y1160424D01*
X2026869Y1149705D01*
X2017522Y1137767D01*
X2009648Y1124762D01*
X2003450Y1110945D01*
X2002891Y1109167D01*
X2000808Y1105458D01*
X1997354Y1102969D01*
X1993188Y1102055D01*
X1483664Y1102055D01*
X1479397Y1102969D01*
X1475943Y1105611D01*
X1474774Y1107744D01*
X1472996Y1105052D01*
X1469694Y1102817D01*
X1465783Y1102055D01*
X1373428Y1102055D01*
X1369517Y1102817D01*
X1366215Y1105052D01*
X1364386Y1107744D01*
X1363268Y1105611D01*
X1359814Y1102969D01*
X1355547Y1102055D01*
X1289405Y1102055D01*
X1285544Y1102817D01*
X1282242Y1105052D01*
X1194409Y1192885D01*
X1192479Y1195527D01*
X1191514Y1198626D01*
X1191615Y1201877D01*
X1194308Y1216761D01*
X1195222Y1231900D01*
X1194308Y1247038D01*
X1191564Y1261973D01*
X1187094Y1276451D01*
X1180846Y1290269D01*
X1172972Y1303274D01*
X1163624Y1315212D01*
X1152906Y1325930D01*
X1140968Y1335278D01*
X1127963Y1343152D01*
X1114145Y1349349D01*
X1099667Y1353870D01*
X1084732Y1356614D01*
X1069594Y1357528D01*
X1054455Y1356614D01*
X1039520Y1353870D01*
X1025042Y1349349D01*
X1011224Y1343152D01*
X998219Y1335278D01*
X986282Y1325930D01*
X975563Y1315212D01*
X966216Y1303274D01*
X958342Y1290269D01*
X952144Y1276451D01*
X947623Y1261973D01*
X944880Y1247038D01*
X943965Y1231900D01*
X944880Y1216761D01*
X947623Y1201826D01*
X952144Y1187348D01*
X958342Y1173530D01*
X966216Y1160526D01*
X975563Y1148588D01*
X986282Y1137869D01*
X998219Y1128522D01*
X1011224Y1120648D01*
X1025042Y1114450D01*
X1039520Y1109929D01*
X1054455Y1107186D01*
X1069594Y1106271D01*
X1084732Y1107186D01*
X1099616Y1109929D01*
X1102868Y1109980D01*
X1105966Y1109014D01*
X1108608Y1107084D01*
X1216964Y998728D01*
X1223010Y993394D01*
X1231392Y987958D01*
X1233271Y986993D01*
X1240586Y983945D01*
X1250340Y981557D01*
X1252372Y981252D01*
X1260398Y980744D01*
X1993188Y980744D01*
X1997354Y979830D01*
X2000808Y977341D01*
X2002891Y973632D01*
X2003450Y971854D01*
X2009648Y958037D01*
X2017522Y945032D01*
X2026869Y933094D01*
X2037588Y922375D01*
X2049525Y913028D01*
X2062530Y905154D01*
X2076348Y898906D01*
X2090826Y894435D01*
X2105761Y891692D01*
X2120900Y890778D01*
X2136038Y891692D01*
X2150973Y894435D01*
X2165451Y898906D01*
X2167432Y899820D01*
X2171395Y900734D01*
X2175408Y899972D01*
X2178761Y897737D01*
X2263698Y812800D01*
X2269744Y807466D01*
X2278126Y802030D01*
X2280005Y801065D01*
X2287320Y798017D01*
X2297074Y795629D01*
X2299106Y795324D01*
G37*
G36*
X1475943Y1118565D02*
G01*
X1478381Y1120902D01*
X1490980Y1128522D01*
X1502918Y1137869D01*
X1513636Y1148588D01*
X1522984Y1160526D01*
X1530858Y1173530D01*
X1531772Y1175562D01*
X1475943Y1175562D01*
G37*
G36*
X1363268Y1118565D02*
G01*
X1363268Y1175562D01*
X1307439Y1175562D01*
X1308354Y1173530D01*
X1316228Y1160526D01*
X1325575Y1148588D01*
X1336294Y1137869D01*
X1348232Y1128522D01*
X1360779Y1120902D01*
G37*
G36*
X1475943Y1288237D02*
G01*
X1531772Y1288237D01*
X1530858Y1290269D01*
X1522984Y1303274D01*
X1513636Y1315212D01*
X1502918Y1325930D01*
X1490980Y1335278D01*
X1477975Y1343152D01*
X1475943Y1344066D01*
G37*
G36*
X1307439Y1288237D02*
G01*
X1363268Y1288237D01*
X1363268Y1344066D01*
X1361236Y1343152D01*
X1348232Y1335278D01*
X1336294Y1325930D01*
X1325575Y1315212D01*
X1316228Y1303274D01*
X1308354Y1290269D01*
G37*
G36*
X3596894Y1347571D02*
G01*
X3612032Y1348486D01*
X3626967Y1351229D01*
X3641445Y1355750D01*
X3655263Y1361948D01*
X3668268Y1369822D01*
X3680206Y1379169D01*
X3690924Y1389888D01*
X3700272Y1401826D01*
X3708146Y1414830D01*
X3714394Y1428648D01*
X3718864Y1443126D01*
X3721608Y1458061D01*
X3722522Y1473200D01*
X3721608Y1488338D01*
X3718864Y1503273D01*
X3714394Y1517751D01*
X3708146Y1531569D01*
X3700272Y1544574D01*
X3690924Y1556512D01*
X3680206Y1567230D01*
X3668268Y1576578D01*
X3655263Y1584452D01*
X3641445Y1590649D01*
X3626967Y1595170D01*
X3612032Y1597914D01*
X3596894Y1598828D01*
X3581755Y1597914D01*
X3566820Y1595170D01*
X3552342Y1590649D01*
X3538524Y1584452D01*
X3525520Y1576578D01*
X3513582Y1567230D01*
X3502863Y1556512D01*
X3493515Y1544574D01*
X3485642Y1531569D01*
X3479444Y1517751D01*
X3474923Y1503273D01*
X3472179Y1488338D01*
X3471265Y1473200D01*
X3472179Y1458061D01*
X3474923Y1443126D01*
X3479444Y1428648D01*
X3485642Y1414830D01*
X3493515Y1401826D01*
X3502863Y1389888D01*
X3513582Y1379169D01*
X3525520Y1369822D01*
X3538524Y1361948D01*
X3552342Y1355750D01*
X3566820Y1351229D01*
X3581755Y1348486D01*
G37*
G36*
X1143000Y2378964D02*
G01*
X1158748Y2379878D01*
X1174292Y2382621D01*
X1189380Y2387142D01*
X1203858Y2393391D01*
X1217523Y2401265D01*
X1230172Y2410714D01*
X1241653Y2421534D01*
X1251813Y2433624D01*
X1260449Y2446782D01*
X1267561Y2460853D01*
X1272946Y2475687D01*
X1276553Y2491028D01*
X1278382Y2506726D01*
X1278382Y2522474D01*
X1276553Y2538171D01*
X1272946Y2553512D01*
X1267561Y2568346D01*
X1260449Y2582418D01*
X1251813Y2595575D01*
X1241653Y2607665D01*
X1230172Y2618486D01*
X1217523Y2627934D01*
X1203858Y2635808D01*
X1189380Y2642057D01*
X1174292Y2646578D01*
X1158748Y2649321D01*
X1143000Y2650236D01*
X1127252Y2649321D01*
X1111707Y2646578D01*
X1096619Y2642057D01*
X1082141Y2635808D01*
X1068476Y2627934D01*
X1055827Y2618486D01*
X1044346Y2607665D01*
X1034186Y2595575D01*
X1025550Y2582418D01*
X1018438Y2568346D01*
X1013053Y2553512D01*
X1009446Y2538171D01*
X1007618Y2522474D01*
X1007618Y2506726D01*
X1009446Y2491028D01*
X1013053Y2475687D01*
X1018438Y2460853D01*
X1025550Y2446782D01*
X1034186Y2433624D01*
X1044346Y2421534D01*
X1055827Y2410714D01*
X1068476Y2401265D01*
X1082141Y2393391D01*
X1096619Y2387142D01*
X1111707Y2382621D01*
X1127252Y2379878D01*
G37*
G36*
X1589633Y2393645D02*
G01*
X1589633Y2453233D01*
X1530299Y2453233D01*
X1533550Y2446782D01*
X1542186Y2433624D01*
X1552346Y2421534D01*
X1563827Y2410714D01*
X1576476Y2401265D01*
G37*
G36*
X1712366Y2393645D02*
G01*
X1725523Y2401265D01*
X1738172Y2410714D01*
X1749653Y2421534D01*
X1759813Y2433624D01*
X1768449Y2446782D01*
X1771700Y2453233D01*
X1712366Y2453233D01*
G37*
G36*
X3100933Y2469845D02*
G01*
X3100933Y2529433D01*
X3041599Y2529433D01*
X3044850Y2522982D01*
X3053486Y2509824D01*
X3063646Y2497734D01*
X3075127Y2486914D01*
X3087776Y2477465D01*
G37*
G36*
X1712366Y2575966D02*
G01*
X1771700Y2575966D01*
X1768449Y2582418D01*
X1759813Y2595575D01*
X1749653Y2607665D01*
X1738172Y2618486D01*
X1725523Y2627934D01*
X1712366Y2635554D01*
G37*
G36*
X1530299Y2575966D02*
G01*
X1589633Y2575966D01*
X1589633Y2635554D01*
X1576476Y2627934D01*
X1563827Y2618486D01*
X1552346Y2607665D01*
X1542186Y2595575D01*
X1533550Y2582418D01*
G37*
G36*
X4210862Y4049471D02*
G01*
X4399737Y4049471D01*
X4405985Y4050182D01*
X4411421Y4052062D01*
X4416247Y4055110D01*
X4420311Y4059174D01*
X4423359Y4064000D01*
X4424629Y4067657D01*
X4426762Y4071213D01*
X4430166Y4073601D01*
X4434230Y4074464D01*
X4470196Y4074464D01*
X4475429Y4074668D01*
X4480356Y4075277D01*
X4485284Y4076344D01*
X4490110Y4077766D01*
X4494784Y4079595D01*
X4499254Y4081779D01*
X4503572Y4084370D01*
X4507636Y4087266D01*
X4511497Y4090517D01*
X4515002Y4094022D01*
X4518253Y4097883D01*
X4521149Y4101947D01*
X4523740Y4106265D01*
X4525924Y4110736D01*
X4527753Y4115409D01*
X4529175Y4120235D01*
X4530242Y4125163D01*
X4530852Y4130090D01*
X4531055Y4135323D01*
X4531055Y4812842D01*
X4531969Y4817059D01*
X4534509Y4820513D01*
X4538319Y4822596D01*
X4548174Y4825542D01*
X4562652Y4831791D01*
X4576318Y4839665D01*
X4588967Y4849114D01*
X4600448Y4859934D01*
X4610608Y4872024D01*
X4619244Y4885182D01*
X4626356Y4899253D01*
X4631740Y4914087D01*
X4635398Y4929428D01*
X4637227Y4945126D01*
X4637227Y4960874D01*
X4635398Y4976571D01*
X4631740Y4991912D01*
X4626356Y5006746D01*
X4619244Y5020818D01*
X4610608Y5033975D01*
X4600448Y5046065D01*
X4588967Y5056886D01*
X4576318Y5066334D01*
X4562652Y5074208D01*
X4548174Y5080457D01*
X4533087Y5084978D01*
X4517542Y5087721D01*
X4501794Y5088636D01*
X4486046Y5087721D01*
X4470501Y5084978D01*
X4455414Y5080457D01*
X4440936Y5074208D01*
X4427270Y5066334D01*
X4414621Y5056886D01*
X4403140Y5046065D01*
X4392980Y5033975D01*
X4384344Y5020818D01*
X4377283Y5006746D01*
X4371848Y4991912D01*
X4368241Y4976571D01*
X4366412Y4960315D01*
X4365599Y4956403D01*
X4363415Y4953152D01*
X4360113Y4950917D01*
X4356252Y4950155D01*
X3624224Y4950155D01*
X3620312Y4950917D01*
X3617010Y4953152D01*
X3614826Y4956403D01*
X3614064Y4960315D01*
X3614064Y5188915D01*
X3613353Y5195214D01*
X3611473Y5200599D01*
X3608425Y5205476D01*
X3604361Y5209489D01*
X3599484Y5212537D01*
X3594100Y5214467D01*
X3587851Y5215128D01*
X2988970Y5215128D01*
X2982722Y5214467D01*
X2977286Y5212537D01*
X2972460Y5209489D01*
X2968396Y5205476D01*
X2965348Y5200599D01*
X2963468Y5195214D01*
X2962757Y5188915D01*
X2962757Y4590084D01*
X2963468Y4583785D01*
X2965348Y4578400D01*
X2968396Y4573524D01*
X2972460Y4569510D01*
X2977286Y4566462D01*
X2982722Y4564532D01*
X2988970Y4563821D01*
X3587851Y4563821D01*
X3594100Y4564532D01*
X3599484Y4566462D01*
X3604361Y4569510D01*
X3608425Y4573524D01*
X3611473Y4578400D01*
X3613353Y4583785D01*
X3614064Y4590084D01*
X3614064Y4818684D01*
X3614826Y4822596D01*
X3617010Y4825847D01*
X3620312Y4828082D01*
X3624224Y4828844D01*
X4399584Y4828844D01*
X4403496Y4828082D01*
X4406747Y4825847D01*
X4408982Y4822596D01*
X4409744Y4818684D01*
X4409744Y4230928D01*
X4408982Y4227017D01*
X4406747Y4223715D01*
X4403496Y4221530D01*
X4399584Y4220768D01*
X4210862Y4220768D01*
X4204614Y4220057D01*
X4199178Y4218178D01*
X4194352Y4215130D01*
X4190288Y4211066D01*
X4187240Y4206189D01*
X4185361Y4200804D01*
X4184650Y4194556D01*
X4184650Y4075684D01*
X4185361Y4069435D01*
X4187240Y4064000D01*
X4190288Y4059174D01*
X4194352Y4055110D01*
X4199178Y4052062D01*
X4204614Y4050182D01*
G37*
G36*
X286308Y4542129D02*
G01*
X334670Y4542129D01*
X334670Y4571034D01*
X335381Y4574794D01*
X337464Y4578045D01*
X340563Y4580280D01*
X344271Y4581194D01*
X348081Y4580686D01*
X353669Y4578756D01*
X367233Y4576064D01*
X381000Y4575149D01*
X394766Y4576064D01*
X408330Y4578756D01*
X413918Y4580686D01*
X417728Y4581194D01*
X421436Y4580280D01*
X424535Y4578045D01*
X426618Y4574794D01*
X427329Y4571034D01*
X427329Y4542129D01*
X475691Y4542129D01*
X472490Y4548632D01*
X464820Y4560112D01*
X455676Y4570476D01*
X444804Y4580026D01*
X442264Y4583480D01*
X441350Y4588916D01*
X442264Y4593132D01*
X444804Y4596536D01*
X455676Y4606086D01*
X464820Y4616500D01*
X472490Y4627981D01*
X478586Y4640376D01*
X483057Y4653483D01*
X485749Y4666996D01*
X486613Y4680813D01*
X485749Y4694580D01*
X483057Y4708144D01*
X478586Y4721199D01*
X472490Y4733594D01*
X464820Y4745126D01*
X455676Y4755489D01*
X444804Y4765040D01*
X442264Y4768494D01*
X441350Y4773930D01*
X442264Y4778095D01*
X444804Y4781550D01*
X455676Y4791100D01*
X464820Y4801514D01*
X472490Y4812995D01*
X475691Y4819446D01*
X427329Y4819446D01*
X427329Y4790541D01*
X426618Y4786782D01*
X424535Y4783582D01*
X421436Y4781346D01*
X417728Y4780432D01*
X413918Y4780940D01*
X408330Y4782820D01*
X394766Y4785512D01*
X381000Y4786426D01*
X367233Y4785512D01*
X353669Y4782820D01*
X348081Y4780940D01*
X344271Y4780432D01*
X340563Y4781346D01*
X337464Y4783582D01*
X335381Y4786782D01*
X334670Y4790541D01*
X334670Y4819446D01*
X286308Y4819446D01*
X289509Y4812995D01*
X297180Y4801514D01*
X306324Y4791100D01*
X317195Y4781550D01*
X319735Y4778095D01*
X320649Y4772660D01*
X319735Y4768494D01*
X317195Y4765040D01*
X306324Y4755489D01*
X297180Y4745126D01*
X289509Y4733594D01*
X283413Y4721199D01*
X278942Y4708144D01*
X276250Y4694580D01*
X275386Y4680813D01*
X276250Y4666996D01*
X278942Y4653483D01*
X283413Y4640376D01*
X289509Y4627981D01*
X297180Y4616500D01*
X306324Y4606086D01*
X317195Y4596536D01*
X319735Y4593132D01*
X320649Y4587697D01*
X319735Y4583480D01*
X317195Y4580026D01*
X306324Y4570476D01*
X297180Y4560112D01*
X289509Y4548632D01*
G37*
G36*
X286308Y4912156D02*
G01*
X334670Y4912156D01*
X334670Y4960467D01*
X328168Y4957267D01*
X316687Y4949596D01*
X306324Y4940503D01*
X297180Y4930089D01*
X289509Y4918608D01*
G37*
G36*
X427329Y4912156D02*
G01*
X475691Y4912156D01*
X472490Y4918608D01*
X464820Y4930089D01*
X455676Y4940503D01*
X445312Y4949596D01*
X433832Y4957267D01*
X427329Y4960467D01*
G37*
G36*
X304546Y5824423D02*
G01*
X322529Y5825794D01*
X340360Y5829046D01*
X357682Y5834126D01*
X374446Y5840933D01*
X390398Y5849416D01*
X405434Y5859526D01*
X419303Y5871108D01*
X431952Y5884062D01*
X443128Y5898235D01*
X452882Y5913475D01*
X460959Y5929680D01*
X467309Y5946597D01*
X471932Y5964072D01*
X474726Y5981954D01*
X475640Y5999988D01*
X474726Y6018072D01*
X471932Y6035903D01*
X467309Y6053429D01*
X460959Y6070346D01*
X452882Y6086500D01*
X443128Y6101791D01*
X431952Y6115964D01*
X419303Y6128918D01*
X405434Y6140500D01*
X390398Y6150559D01*
X374446Y6159093D01*
X357682Y6165900D01*
X340360Y6170930D01*
X322529Y6174181D01*
X304546Y6175603D01*
X286461Y6175095D01*
X268528Y6172809D01*
X250901Y6168644D01*
X233832Y6162700D01*
X217474Y6155029D01*
X201930Y6145733D01*
X187502Y6134862D01*
X174193Y6122568D01*
X162255Y6109004D01*
X151790Y6094272D01*
X142900Y6078524D01*
X135636Y6061964D01*
X130149Y6044742D01*
X126441Y6027013D01*
X124612Y6009030D01*
X124612Y5990945D01*
X126441Y5972962D01*
X130149Y5955284D01*
X135636Y5938062D01*
X142900Y5921451D01*
X151790Y5905754D01*
X162255Y5890971D01*
X174193Y5877407D01*
X187502Y5865114D01*
X201930Y5854293D01*
X217474Y5844946D01*
X233832Y5837275D01*
X250901Y5831382D01*
X268528Y5827217D01*
X286461Y5824880D01*
G37*
G36*
X5504535Y5824423D02*
G01*
X5522569Y5825794D01*
X5540349Y5829046D01*
X5557723Y5834126D01*
X5574436Y5840933D01*
X5590438Y5849416D01*
X5605424Y5859526D01*
X5619292Y5871108D01*
X5631942Y5884062D01*
X5643168Y5898235D01*
X5652871Y5913475D01*
X5660948Y5929680D01*
X5667298Y5946597D01*
X5671921Y5964072D01*
X5674715Y5981954D01*
X5675630Y5999988D01*
X5674715Y6018072D01*
X5671921Y6035903D01*
X5667298Y6053429D01*
X5660948Y6070346D01*
X5652871Y6086500D01*
X5643168Y6101791D01*
X5631942Y6115964D01*
X5619292Y6128918D01*
X5605424Y6140500D01*
X5590438Y6150559D01*
X5574436Y6159093D01*
X5557723Y6165900D01*
X5540349Y6170930D01*
X5522569Y6174181D01*
X5504535Y6175603D01*
X5486450Y6175095D01*
X5468518Y6172809D01*
X5450890Y6168644D01*
X5433822Y6162700D01*
X5417464Y6155029D01*
X5401970Y6145733D01*
X5387492Y6134862D01*
X5374233Y6122568D01*
X5362295Y6109004D01*
X5351780Y6094272D01*
X5342890Y6078524D01*
X5335625Y6061964D01*
X5330139Y6044742D01*
X5326430Y6027013D01*
X5324602Y6009030D01*
X5324602Y5990945D01*
X5326430Y5972962D01*
X5330139Y5955284D01*
X5335625Y5938062D01*
X5342890Y5921451D01*
X5351780Y5905754D01*
X5362295Y5890971D01*
X5374233Y5877407D01*
X5387492Y5865114D01*
X5401970Y5854293D01*
X5417464Y5844946D01*
X5433822Y5837275D01*
X5450890Y5831382D01*
X5468518Y5827217D01*
X5486450Y5824880D01*
G37*

%LPD*%
D11*
X2374900Y1041400D02*
G01*
X2374900Y1486407D01*
X3327400Y2438907D01*
X3327400Y2659887D01*
X3227070Y2760218D01*
X2120138Y2760218D01*
X569468Y4310887D01*
X569468Y4310887D01*
X1588515Y4889500D02*
G01*
X1148334Y4889500D01*
X569468Y4310887D01*
X4305300Y3815079D02*
G01*
X4140200Y3815079D01*
X4508500Y3347720D02*
G01*
X4343400Y3347720D01*
X4305300Y3815079D02*
G01*
X4470400Y3815079D01*
X4470400Y3815079D02*
G01*
X4470400Y3604768D01*
X4343400Y3477768D01*
X4343400Y3347720D01*
X726694Y4275836D02*
G01*
X3679443Y4275836D01*
X4140200Y3815079D01*
X3162300Y2590800D02*
G01*
X2989834Y2418334D01*
X1747265Y2418334D01*
X1651000Y2514600D01*
X4508500Y3027679D02*
G01*
X4673600Y3027679D01*
X5251704Y4953000D02*
G01*
X5251704Y3605784D01*
X4673600Y3027679D01*
X4508500Y3027679D02*
G01*
X4343400Y3027679D01*
X4343400Y3027679D02*
G01*
X4343400Y1869694D01*
X3946906Y1473200D01*
X2628900Y1041400D02*
G01*
X2442972Y855471D01*
X2306827Y855471D01*
X2120900Y1041400D01*
X3946906Y1473200D02*
G01*
X3515106Y1041400D01*
X2628900Y1041400D01*
X1069594Y1231900D02*
G01*
X1260094Y1041400D01*
X2120900Y1041400D01*
X4305300Y4135120D02*
G01*
X4470400Y4135120D01*
X4438395Y4889500D02*
G01*
X4501895Y4953000D01*
X3288538Y4889500D02*
G01*
X4438395Y4889500D01*
X4470400Y4135120D02*
G01*
X4470400Y4857495D01*
X4438395Y4889500D01*
X569468Y4310887D02*
G01*
X381000Y4310887D01*
D13*
G01*
X4508500Y3027679D03*
G01*
X4508500Y3347694D03*
G01*
X4305300Y3815079D03*
G01*
X4305300Y4135094D03*
D14*
G01*
X1588414Y4889500D03*
G01*
X3288411Y4889500D03*
D15*
G01*
X1143000Y2514600D03*
G01*
X1651000Y2514600D03*
G01*
X2654300Y2590800D03*
G01*
X3162300Y2590800D03*
G01*
X5251805Y4953000D03*
G01*
X4501819Y4953000D03*
G36*
X2728975Y916431D02*
G01*
X2528824Y916431D01*
X2528824Y1166368D01*
X2728975Y1166368D01*
G37*
D17*
G01*
X381000Y4125798D03*
G01*
X381000Y4310811D03*
G01*
X381000Y4495800D03*
G01*
X381000Y4680813D03*
G01*
X381000Y4865801D03*
D18*
G01*
X1069594Y1231900D03*
G01*
X1419605Y1231900D03*
G01*
X3596893Y1473200D03*
G01*
X3946906Y1473200D03*
D12*
G01*
X726694Y4275836D03*
D18*
X2374900Y1016398D02*
G01*
X2374900Y1066398D01*
X2120900Y1016398D02*
G01*
X2120900Y1066398D01*
M02*
